<svg xmlns="http://www.w3.org/2000/svg" viewBox="0 0 128 128"><defs><linearGradient id="g" x1="0" y1="0" x2="1" y2="1"><stop stop-color="#fef08a"/><stop offset=".45" stop-color="#fb923c"/><stop offset="1" stop-color="#dc2626"/></linearGradient></defs><ellipse cx="64" cy="78" rx="40" ry="30" fill="#7f1d1d" opacity=".35"/><path d="M27 81c-4-28 12-52 37-57 21-4 42 10 40 35-2 24-20 42-45 43-16 1-29-7-32-21z" fill="url(#g)"/><path d="M38 40L25 21l22 10M88 39l15-19-22 12" fill="#f97316" stroke="#fed7aa" stroke-width="3"/><circle cx="49" cy="66" r="6" fill="#431407"/><circle cx="80" cy="66" r="6" fill="#431407"/><path d="M57 84c6 4 11 4 17-1" fill="none" stroke="#7c2d12" stroke-width="4" stroke-linecap="round"/><path d="M94 76c16 2 20 8 24 16-11-2-18-5-24-10z" fill="#ef4444"/></svg>